<?xml version="1.0" standalone="no"?>
<!DOCTYPE svg PUBLIC "-//W3C//DTD SVG 20010904//EN"
 "http://www.w3.org/TR/2001/REC-SVG-20010904/DTD/svg10.dtd">
<svg version="1.0" xmlns="http://www.w3.org/2000/svg"
 width="200.000000pt" height="200.000000pt" viewBox="0 0 200.000000 200.000000"
 preserveAspectRatio="xMidYMid meet">

<g transform="translate(0.000000,200.000000) scale(0.100000,-0.100000)"
fill="#000000" stroke="none">
<path d="M455 1900 c5 -17 2 -18 -29 -13 -40 6 -47 -7 -21 -41 24 -31 18 -50
-25 -76 -22 -14 -40 -33 -40 -42 0 -27 -38 -60 -61 -53 -23 8 -61 -3 -54 -15
3 -4 14 -6 25 -3 11 3 20 0 20 -6 0 -6 -9 -11 -21 -11 -11 0 -32 -9 -46 -20
-14 -11 -31 -20 -38 -20 -7 0 -17 -6 -23 -12 -8 -10 1 -12 44 -10 49 4 54 2
54 -17 0 -21 37 -54 51 -45 5 2 4 16 -1 30 -6 14 -10 27 -10 29 0 3 53 6 119
7 l118 3 -9 25 c-6 14 -12 20 -15 13 -3 -10 -11 -9 -33 2 -16 8 -44 15 -62 16
-18 1 -44 5 -58 9 -22 7 -20 8 15 9 22 0 83 -2 136 -5 l96 -7 0 -28 c0 -28
-12 -40 -19 -19 -2 6 -9 1 -16 -10 -12 -19 -10 -20 38 -20 45 0 50 -2 47 -21
-1 -12 4 -24 12 -27 10 -3 12 1 8 17 -4 18 -1 21 21 21 15 -1 44 -7 64 -14
l36 -13 -53 49 c-30 27 -57 58 -60 68 -3 10 -21 24 -38 29 -40 14 -67 44 -67
75 0 24 -17 36 -48 36 -13 0 -14 -2 -4 -9 20 -12 -7 -21 -33 -11 -17 7 -17 9
-4 14 11 5 15 19 14 54 -3 68 -3 69 -21 76 -12 4 -14 1 -9 -14z m60 -184 c28
-22 28 -24 12 -41 -10 -9 -24 -14 -32 -11 -28 10 -42 76 -17 76 4 0 20 -11 37
-24z m-55 -22 c0 -9 -5 -12 -12 -8 -7 4 -28 11 -48 15 -34 6 -33 7 13 8 36 1
47 -2 47 -15z"/>
<path d="M94 1313 c3 -271 11 -331 68 -493 78 -221 200 -380 376 -493 88 -55
204 -111 287 -137 22 -7 45 -16 50 -20 20 -14 187 -58 290 -76 43 -7 194 -22
316 -30 l76 -5 -1 38 c-1 32 -5 39 -25 41 -14 2 -21 0 -17 -7 5 -7 -4 -9 -26
-5 -55 10 -66 16 -40 23 23 6 22 6 -7 18 -17 6 -29 8 -26 3 9 -15 -15 -22 -30
-10 -8 7 -15 9 -15 5 0 -4 -11 4 -25 19 -28 30 -43 33 -60 10 -10 -15 -18 -14
-86 9 -54 18 -73 29 -71 40 2 11 -35 41 -105 88 -176 117 -285 260 -348 457
-42 129 -37 294 15 491 5 20 14 57 20 82 10 38 17 48 44 57 46 17 61 15 105
-13 31 -19 42 -21 50 -12 12 15 -2 42 -21 42 -7 0 -12 7 -11 15 1 8 -17 29
-40 47 -38 29 -43 30 -49 14 -14 -39 -132 -53 -268 -30 -49 8 -84 7 -139 -2
-66 -11 -74 -11 -83 4 -11 20 -31 22 -58 5 -15 -10 -23 -9 -39 6 -23 21 -28
51 -8 60 6 3 1 4 -12 3 -23 -2 -31 -11 -47 -52 -7 -16 -9 -13 -12 18 -2 22 -8
37 -17 37 -10 0 -12 -47 -11 -247z m86 183 c0 -3 -4 -8 -10 -11 -5 -3 -10 -1
-10 4 0 6 5 11 10 11 6 0 10 -2 10 -4z m125 -78 c28 -13 29 -33 0 -33 -10 0
-21 10 -26 23 -10 26 -9 26 26 10z m-65 -8 c0 -5 -7 -10 -15 -10 -8 0 -15 5
-15 10 0 6 7 10 15 10 8 0 15 -4 15 -10z m460 -18 c0 -13 -5 -33 -12 -45 -7
-12 -15 -44 -19 -72 -4 -27 -13 -70 -19 -95 -6 -25 -11 -55 -11 -67 1 -14 -5
-23 -14 -23 -7 0 -17 -5 -21 -12 -5 -8 -2 -9 9 -5 15 6 17 -5 17 -98 0 -84 -3
-106 -16 -113 -14 -8 -14 -10 0 -21 9 -8 16 -18 16 -23 0 -5 9 -18 20 -30 11
-12 27 -44 36 -72 9 -28 24 -65 34 -83 10 -17 16 -40 14 -50 -7 -26 47 -96
106 -139 28 -20 50 -40 50 -44 0 -18 53 -70 71 -70 11 0 22 -7 26 -15 8 -23
81 -57 104 -50 17 6 16 2 -6 -21 -22 -24 -29 -26 -43 -16 -9 7 -30 20 -45 30
-16 9 -51 34 -77 55 -49 38 -74 45 -86 26 -4 -7 0 -9 14 -5 27 9 35 -6 16 -30
-11 -14 -17 -15 -20 -6 -3 6 -12 12 -20 12 -9 0 -13 4 -9 9 3 6 -11 13 -31 17
-27 5 -41 15 -56 40 -11 19 -26 34 -34 34 -14 0 -28 36 -22 60 2 8 -11 17 -32
22 -37 10 -57 24 -48 33 3 3 19 -2 36 -12 17 -10 34 -15 38 -11 7 8 -48 99
-73 120 -17 13 -64 18 -73 7 -9 -11 -48 9 -60 30 -11 21 3 31 15 11 3 -5 12
-7 20 -4 7 3 26 -2 42 -12 l28 -18 -29 31 c-25 28 -26 31 -8 26 19 -4 20 -2
12 33 -5 22 -20 46 -37 60 -23 18 -25 24 -12 29 19 7 19 59 1 93 -16 27 -26
29 -17 2 3 -11 2 -20 -4 -20 -5 0 -11 10 -13 23 -2 18 -9 22 -34 20 -18 -2
-31 2 -32 10 -8 66 -9 124 -2 132 4 5 4 21 -1 34 -8 19 -14 22 -36 16 -16 -3
-31 -12 -35 -18 -5 -8 -8 -7 -8 4 0 9 -7 19 -15 23 -21 8 -19 -7 6 -38 16 -20
19 -30 11 -38 -9 -9 -9 -15 -1 -25 17 -19 27 -16 32 10 3 13 5 7 6 -16 0 -21
8 -51 16 -67 21 -41 4 -38 -52 8 -55 45 -71 79 -47 97 11 7 14 17 9 25 -4 7
-10 23 -11 34 -2 12 -6 33 -10 47 -4 17 0 31 10 42 12 11 13 17 3 20 -6 2 -9
8 -4 12 4 5 13 3 19 -3 10 -10 10 -17 0 -32 -14 -23 -16 -50 -3 -50 5 0 14 13
21 30 10 25 10 34 -4 55 -9 14 -21 25 -28 25 -6 0 1 9 15 20 14 11 34 20 45
20 14 0 25 12 35 39 15 36 19 39 69 45 123 17 186 23 226 23 37 -1 42 -3 42
-25z m-450 -12 c-8 -5 -19 -10 -25 -10 -5 0 -3 5 5 10 8 5 20 10 25 10 6 0 3
-5 -5 -10z m-35 -40 c3 -5 2 -10 -4 -10 -5 0 -13 5 -16 10 -3 6 -2 10 4 10 5
0 13 -4 16 -10z m-75 -16 c0 -8 -4 -12 -10 -9 -5 3 -10 10 -10 16 0 5 5 9 10
9 6 0 10 -7 10 -16z m55 -27 c-9 -5 -19 -6 -22 -3 -4 3 -1 6 5 6 7 0 9 7 5 18
-6 15 -5 15 11 3 16 -13 16 -15 1 -24z m-49 -128 c1 -62 -2 -96 -8 -87 -26 39
26 -154 58 -214 8 -14 14 -42 14 -61 0 -20 7 -40 17 -48 9 -8 22 -29 30 -46 7
-18 18 -33 23 -33 6 0 10 -9 10 -20 0 -11 16 -37 35 -57 37 -40 43 -53 22 -53
-62 0 -216 352 -223 510 -1 36 -6 98 -10 139 -5 55 -4 72 4 67 7 -4 12 -2 12
5 0 7 3 9 7 5 4 -4 8 -52 9 -107z m99 -219 c3 -5 2 -10 -4 -10 -5 0 -13 5 -16
10 -3 6 -2 10 4 10 5 0 13 -4 16 -10z m35 -51 c0 -6 -4 -7 -10 -4 -5 3 -10 11
-10 16 0 6 5 7 10 4 6 -3 10 -11 10 -16z m90 6 c32 -16 40 -35 16 -35 -17 0
-13 -54 5 -76 7 -8 9 -17 6 -21 -4 -3 -2 -12 4 -20 6 -7 7 -13 2 -13 -5 0 -29
20 -53 45 -48 49 -61 99 -31 122 20 16 17 16 51 -2z m80 -15 c0 -5 -2 -10 -4
-10 -3 0 -8 5 -11 10 -3 6 -1 10 4 10 6 0 11 -4 11 -10z m-95 -140 c3 -5 2
-10 -4 -10 -5 0 -13 5 -16 10 -3 6 -2 10 4 10 5 0 13 -4 16 -10z m27 -28 c-8
-2 0 -13 22 -28 34 -24 47 -44 27 -44 -35 0 -116 54 -106 70 2 4 19 7 37 7 18
0 27 -2 20 -5z m78 -23 c0 -6 -7 -6 -20 1 -11 6 -20 15 -20 21 0 6 7 6 20 -1
11 -6 20 -15 20 -21z m60 -100 c0 -4 -7 -6 -15 -3 -8 4 -15 10 -15 15 0 4 7 6
15 3 8 -4 15 -10 15 -15z m8 -31 c14 5 15 4 2 -10 -13 -14 -18 -14 -34 -4 -11
7 -22 19 -24 26 -3 9 2 9 18 -3 12 -8 30 -13 38 -9z m-11 -54 c-3 -3 -12 -4
-19 -1 -8 3 -5 6 6 6 11 1 17 -2 13 -5z m38 -24 c3 -5 2 -10 -4 -10 -5 0 -13
5 -16 10 -3 6 -2 10 4 10 5 0 13 -4 16 -10z m-18 -97 c3 4 11 -3 17 -16 7 -12
21 -22 31 -22 23 0 129 -54 122 -61 -3 -3 -14 -1 -25 5 -27 14 -45 14 -36 0
12 -20 -118 54 -153 87 -18 17 -33 29 -33 26 0 -2 -7 1 -15 8 -9 7 -13 15 -10
18 8 8 -16 32 -26 26 -5 -3 -6 2 -3 10 5 12 19 4 65 -36 33 -28 62 -48 66 -45z
m373 -90 c0 -5 -5 -15 -10 -23 -9 -13 -11 -13 -19 0 -5 8 -7 18 -5 22 6 10 34
11 34 1z m40 -43 c0 -11 -4 -20 -10 -20 -5 0 -10 2 -10 4 0 2 -3 11 -6 20 -4
11 -1 16 10 16 9 0 16 -8 16 -20z m46 -13 c8 3 14 0 14 -6 0 -13 -36 -15 -44
-2 -3 4 -2 11 2 15 3 4 8 3 10 -3 2 -5 10 -7 18 -4z m-130 -28 c5 -5 36 -15
69 -23 61 -16 92 -33 40 -21 -40 9 -189 56 -195 62 -9 8 74 -9 86 -18z m464
-39 c0 -5 -2 -10 -4 -10 -3 0 -8 5 -11 10 -3 6 -1 10 4 10 6 0 11 -4 11 -10z"/>
<path d="M420 1326 c0 -8 5 -18 10 -21 6 -3 10 1 10 9 0 8 -4 18 -10 21 -5 3
-10 -1 -10 -9z"/>
<path d="M626 1325 c-8 -22 3 -40 16 -27 7 7 7 16 1 27 -9 16 -10 16 -17 0z"/>
<path d="M390 1265 c12 -13 27 -22 33 -18 6 4 1 14 -12 25 -34 26 -48 22 -21
-7z"/>
<path d="M350 1272 c0 -12 19 -26 26 -19 2 2 -2 10 -11 17 -9 8 -15 8 -15 2z"/>
<path d="M326 1253 c-12 -12 -6 -33 9 -33 8 0 15 6 15 14 0 17 -14 28 -24 19z"/>
<path d="M317 1184 c-4 -4 -7 -14 -7 -23 0 -11 3 -12 11 -4 6 6 10 16 7 23 -2
6 -7 8 -11 4z"/>
<path d="M430 1148 c0 -10 -4 -18 -10 -18 -18 0 -10 -38 9 -43 11 -3 22 -2 25
1 11 10 6 38 -9 58 -13 17 -14 17 -15 2z"/>
<path d="M535 1121 c-8 -25 4 -66 15 -55 14 14 16 67 3 71 -6 2 -14 -5 -18
-16z"/>
<path d="M495 650 c3 -5 11 -10 16 -10 6 0 7 5 4 10 -3 6 -11 10 -16 10 -6 0
-7 -4 -4 -10z"/>
<path d="M667 640 c3 -11 9 -20 13 -20 5 0 6 9 3 20 -3 11 -9 20 -13 20 -5 0
-6 -9 -3 -20z"/>
<path d="M607 329 c12 -12 25 -20 28 -17 3 3 -7 13 -22 23 l-28 17 22 -23z"/>
<path d="M468 1553 c7 -3 16 -2 19 1 4 3 -2 6 -13 5 -11 0 -14 -3 -6 -6z"/>
<path d="M508 1548 c5 -5 16 -8 23 -6 8 3 3 7 -10 11 -17 4 -21 3 -13 -5z"/>
<path d="M395 1540 c3 -5 11 -10 16 -10 6 0 7 5 4 10 -3 6 -11 10 -16 10 -6 0
-7 -4 -4 -10z"/>
<path d="M350 1531 c0 -13 29 -35 37 -28 7 8 -15 37 -28 37 -5 0 -9 -4 -9 -9z"/>
<path d="M805 1193 c11 -3 23 -10 27 -17 10 -14 10 -258 0 -272 -4 -7 -16 -14
-27 -17 -11 -2 18 -5 65 -5 60 -1 78 2 63 8 -21 8 -23 16 -23 75 0 56 2 65 18
65 21 0 46 -18 58 -42 6 -11 10 10 11 65 2 69 0 77 -9 52 -15 -43 -27 -55 -54
-55 -23 0 -24 3 -24 65 l0 65 41 0 c49 0 74 -13 92 -46 13 -26 14 -25 15 20
l2 46 -137 -1 c-76 -1 -129 -4 -118 -6z"/>
<path d="M1103 1189 c15 -9 17 -27 17 -149 0 -122 -2 -140 -17 -149 -14 -8 -2
-10 47 -10 36 1 57 3 48 6 -16 4 -18 20 -18 159 l0 154 -47 0 c-38 -1 -44 -3
-30 -11z"/>
<path d="M1668 1188 c8 -8 12 -56 12 -148 0 -92 -4 -140 -12 -148 -9 -9 0 -12
41 -12 45 0 52 2 42 14 -14 17 -11 78 5 83 13 4 57 -74 49 -87 -4 -6 15 -10
52 -9 32 0 52 3 45 6 -7 3 -31 32 -54 66 l-41 60 41 39 41 38 -46 0 c-41 0
-45 -2 -29 -13 17 -13 16 -16 -19 -50 -21 -20 -42 -37 -47 -37 -4 0 -8 47 -8
105 l0 105 -42 0 c-33 0 -39 -3 -30 -12z"/>
<path d="M1295 1093 c-50 -13 -74 -66 -35 -78 30 -10 42 3 35 37 -7 28 -5 29
22 26 23 -2 29 -8 31 -33 3 -27 -2 -33 -42 -52 -52 -26 -81 -63 -71 -92 9 -30
41 -35 78 -13 32 18 33 18 48 -2 15 -19 19 -19 45 -7 17 8 24 16 17 18 -9 3
-13 29 -13 82 0 46 -5 84 -13 94 -13 18 -68 29 -102 20z m44 -179 c-15 -19
-35 -18 -43 2 -7 18 -2 29 28 62 l21 24 3 -37 c2 -20 -2 -43 -9 -51z"/>
<path d="M1490 1080 c-32 -32 -25 -59 31 -111 35 -32 50 -53 46 -63 -10 -26
-43 -18 -71 15 -26 30 -31 25 -20 -17 8 -29 76 -41 109 -20 51 34 38 94 -29
136 -21 12 -36 30 -36 41 0 25 32 25 55 -1 25 -27 32 -25 27 8 -3 24 -8 27
-48 30 -33 2 -49 -3 -64 -18z"/>
<path d="M1208 281 l-57 -38 51 -16 c50 -16 51 -16 69 6 14 17 15 23 4 25 -10
2 -9 8 6 23 20 20 18 39 -4 38 -7 0 -38 -17 -69 -38z"/>
</g>
</svg>
